HIERARCHY
ROOT hip
{
	OFFSET 0.000000 0.000000 0.000000 
	CHANNELS 6 Xposition Yposition Zposition Zrotation Xrotation Yrotation
	JOINT abdomen
	{
		OFFSET 0.000000 3.402643 0.000000 
		CHANNELS 3 Zrotation Xrotation Yrotation
		JOINT chest
		{
			OFFSET 0.000000 8.438565 -0.680529 
			CHANNELS 3 Zrotation Xrotation Yrotation
			JOINT neck
			{
				OFFSET 0.000000 10.207942 -0.272212 
				CHANNELS 3 Zrotation Xrotation Yrotation
				JOINT head
				{
					OFFSET 0.000000 3.130431 0.000000 
					CHANNELS 3 Zrotation Xrotation Yrotation
					End Site
					{
						OFFSET 0.000000 3.130435 0.000000 
					}
				}
			}
			JOINT lCollar
			{
				OFFSET 3.470700 6.669187 -0.816635 
				CHANNELS 3 Zrotation Xrotation Yrotation
				JOINT lShldr
				{
					OFFSET 3.198488 0.000000 0.000000 
					CHANNELS 3 Zrotation Xrotation Yrotation
					JOINT lForeArm
					{
						OFFSET 10.139888 0.000000 0.000000 
						CHANNELS 3 Zrotation Xrotation Yrotation
						JOINT lHand
						{
							OFFSET 8.370511 0.000000 0.000000 
							CHANNELS 3 Zrotation Xrotation Yrotation
							End Site
							{
								OFFSET 4.083176 0.000000 0.000000 
							}
						}
					}
				}
			}
			JOINT rCollar
			{
				OFFSET -3.470700 6.669187 -0.816635 
				CHANNELS 3 Zrotation Xrotation Yrotation
				JOINT rShldr
				{
					OFFSET -3.198488 0.000000 0.000000 
					CHANNELS 3 Zrotation Xrotation Yrotation
					JOINT rForeArm
					{
						OFFSET -10.139888 0.000000 0.000000 
						CHANNELS 3 Zrotation Xrotation Yrotation
						JOINT rHand
						{
							OFFSET -8.370511 0.000000 0.000000 
							CHANNELS 3 Zrotation Xrotation Yrotation
							End Site
							{
								OFFSET -4.083176 0.000000 0.000000 
							}
						}
					}
				}
			}
		}
	}
	JOINT lThigh
	{
		OFFSET 5.308129 -1.633274 1.361059 
		CHANNELS 3 Zrotation Xrotation Yrotation
		JOINT lShin
		{
			OFFSET -2.041588 -20.007561 0.000000 
			CHANNELS 3 Zrotation Xrotation Yrotation
			JOINT lFoot
			{
				OFFSET 0.000000 -19.190928 -1.224953 
				CHANNELS 3 Zrotation Xrotation Yrotation
				End Site
				{
					OFFSET 0.000000 -2.449906 4.627600 
				}
			}
		}
	}
	JOINT rThigh
	{
		OFFSET -5.308129 -1.633274 1.361059 
		CHANNELS 3 Zrotation Xrotation Yrotation
		JOINT rShin
		{
			OFFSET 2.041588 -20.007561 0.000000 
			CHANNELS 3 Zrotation Xrotation Yrotation
			JOINT rFoot
			{
				OFFSET 0.000000 -19.190928 -1.224953 
				CHANNELS 3 Zrotation Xrotation Yrotation
				End Site
				{
					OFFSET 0.000000 -2.449906 4.627600 
				}
			}
		}
	}
}
MOTION
Frames: 8
Frame Time: 0.016667
-0.540522 42.460903 0.166052 -2.861330 4.091800 0.312267 -3.685970 17.694700 3.033020 1.635610 -19.360800 3.881230 -2.232890 5.817570 -5.122900 3.804880 6.562000 -2.989890 -1.998780 -0.069785 1.998780 -27.873699 -44.723400 33.812698 0.696816 -3.922620 -150.770996 -0.068888 28.395000 0.040130 1.998780 -0.069785 -1.998780 76.609200 5.812930 2.513940 1.748710 1.297190 75.657402 0.050946 50.536999 0.005618 0.103580 -13.709800 -8.070130 2.724430 28.840500 0.998481 -3.049630 -13.717800 -8.522700 2.476660 -11.737200 -5.164280 -2.459630 23.249701 -1.060860 -1.010720 -15.255000 -2.578050 
-0.369763 42.291504 -0.175537 -3.115230 4.208980 0.556447 -3.353770 17.486601 2.731160 1.986990 -19.007700 3.490300 -2.707460 5.193830 -4.863090 3.735620 6.357100 -2.858020 -1.998780 -0.069785 1.998780 -27.799101 -45.820801 34.655899 0.689049 -3.925590 -151.082993 -0.069327 28.072001 0.040997 1.998780 -0.069785 -1.998780 75.144798 6.187430 4.076560 1.756970 1.319720 76.340401 0.054354 49.424000 0.000730 -0.427380 -15.662700 -9.797900 2.782590 32.562401 1.044800 -4.093900 -14.845600 -11.025200 2.611450 -13.686400 -4.252180 -2.541240 26.253201 -1.087000 -1.255550 -15.920700 -3.532130 
-0.130713 42.010204 -0.626922 -3.544920 3.935550 0.029158 -3.538650 17.072701 2.845300 2.339950 -18.467501 3.632540 -2.984140 4.082280 -4.926200 3.685550 5.956820 -2.844640 -1.998780 -0.069785 1.998780 -27.160601 -46.880299 35.094601 0.677843 -3.929790 -151.533005 -0.070470 27.212999 0.043285 1.998780 -0.069785 -1.998780 73.968903 5.882220 6.028860 1.758940 1.325200 76.506302 0.058851 47.832001 -0.005900 -0.704750 -17.504000 -10.006800 2.751550 36.436699 1.141560 -4.276550 -12.829200 -12.908400 2.929350 -15.657400 -2.953010 -2.570730 29.920000 -1.185060 -1.375900 -16.627899 -4.015330 
0.126094 41.528206 -1.122780 -4.423830 3.251950 -1.474610 -3.832480 16.577900 3.163900 2.886410 -17.732700 4.158540 -3.227260 3.149590 -4.880480 3.626000 5.673760 -2.791590 -1.998780 -0.069785 1.998780 -24.200899 -48.595402 36.635502 0.663621 -3.934970 -152.100998 -0.073430 24.801001 0.049517 1.998780 -0.069785 -1.998780 73.288002 5.292580 8.024440 1.753930 1.311340 76.086700 0.054026 45.908001 0.000609 -0.141010 -19.078400 -8.888930 2.727000 40.062599 1.239440 -3.526490 -12.838900 -10.509500 3.822660 -17.947901 -1.194570 -2.565610 35.078701 -1.305740 -1.092270 -17.084101 -3.363290 
0.378780 40.923904 -1.584040 -4.863280 2.744140 -3.653160 -4.157670 16.189199 3.630840 3.222530 -17.086399 4.946970 -3.356650 1.917940 -4.901860 3.605370 5.244130 -2.741230 -1.998780 -0.069785 1.998780 -18.838301 -50.626900 38.990299 0.658977 -3.936640 -152.285995 -0.086733 21.363001 0.057704 1.998780 -0.069785 -1.998780 73.516502 4.379450 9.505010 1.742520 1.280840 75.159798 0.059584 43.778999 -0.007666 0.308620 -20.367800 -6.766020 2.658890 42.953701 1.364650 -3.998240 -14.443600 -11.305500 4.200011 -21.105101 0.057331 -2.520010 41.542301 -1.509070 -0.548247 -17.688200 -2.100650 
0.619698 40.304405 -2.024820 -3.857420 2.998050 -5.390830 -4.126830 15.789500 3.864890 3.061870 -16.874300 5.490500 -3.617730 0.913224 -4.801340 3.555470 4.863380 -2.660150 -1.998780 -0.069785 1.998780 -12.138600 -52.898201 41.558399 0.667788 -3.933470 -151.934006 -0.090388 17.153999 0.067522 1.998780 -0.069785 -1.998780 74.938202 3.085600 9.963590 1.715560 1.214100 73.110802 0.063188 42.256001 -0.013241 -0.858050 -22.203100 -5.131500 2.519640 45.367001 1.544900 -4.058540 -16.752701 -10.120000 2.708090 -25.297100 0.452888 -2.354820 48.133900 -1.783810 0.391905 -18.955000 0.552595 
0.847823 39.754105 -2.450600 -2.744140 3.085930 -6.094050 -4.030050 15.567100 3.928990 2.893620 -16.623100 5.705490 -4.004090 0.061614 -4.798190 3.535140 4.541160 -2.629380 -1.998780 -0.069785 1.998780 -7.639930 -55.175098 42.572899 0.683170 -3.927800 -151.319000 -0.092970 13.385000 0.075916 1.998780 -0.069785 -1.998780 76.966599 1.008490 8.705350 1.678740 1.132570 70.564400 0.062966 42.354000 -0.012892 -2.392750 -23.906000 -4.808300 2.383190 47.288300 1.722910 -3.882580 -17.800900 -8.947280 0.596760 -28.776300 -0.228381 -2.172830 53.887100 -2.048320 1.692270 -22.367201 3.713580 
1.014090 39.393703 -2.832540 -1.220700 2.421870 -6.250200 -3.378960 15.356700 3.856240 2.956640 -16.094299 6.020830 -4.666060 -0.817909 -5.118570 3.475640 4.209260 -2.761880 -1.998780 -0.069785 1.998780 -7.324490 -57.086800 40.880402 0.698764 -3.921870 -150.692993 -0.096392 11.168000 0.090664 1.998780 -0.069785 -1.998780 78.427902 -2.050020 6.235000 1.611840 1.004730 66.456802 0.061768 42.870998 -0.011022 -4.140870 -24.340401 -4.240740 2.279160 48.216301 1.851420 -4.107410 -17.626900 -9.490190 -2.310690 -30.290600 -1.732230 -1.970320 58.638802 -2.340460 1.832100 -25.476200 3.768570 
